<?xml version="1.0" encoding="utf-8"?>
<svg fill="#000000" version="1.1" id="Capa_1" xmlns="http://www.w3.org/2000/svg" width="800px" height="800px" preserveAspectRatio="none">
  <path d="M 389.939 161.302 L 106.217 42.119 L 130.56 -15.895 L 199.537 13.045 L 225.582 -49.031 L 371.407 12.154 L 345.362 74.229 L 414.332 103.166 L 389.939 161.302 Z M 229.093 25.447 L 315.801 61.826 L 329.442 29.309 L 242.734 -7.07 L 229.093 25.447 Z M 88.122 172.931 L 395.861 172.931 L 395.862 517.218 L 88.123 517.218 L 88.122 172.931 Z M 314.119 470.203 L 330.146 470.203 L 330.146 219.944 L 314.118 219.944 L 314.119 470.203 Z M 233.978 470.203 L 250.006 470.203 L 250.006 219.944 L 233.978 219.944 L 233.978 470.203 Z M 153.837 470.203 L 169.865 470.203 L 169.865 219.945 L 153.837 219.944 L 153.837 470.203 Z" style=""/>
</svg>